<?xml version="1.0" encoding="utf-8"?>
<!-- Generator: Adobe Illustrator 19.0.0, SVG Export Plug-In . SVG Version: 6.00 Build 0)  -->
<svg xmlns="http://www.w3.org/2000/svg" xmlns:xlink="http://www.w3.org/1999/xlink" version="1.1" id="Layer_1" x="0px" y="0px" viewBox="0 2 98 98" style="enable-background:new 0 2 98 98;" xml:space="preserve" width="512" height="512">
<style type="text/css">
	.st0{fill:url(#SVGID_1_);}
	.st1{fill:url(#SVGID_2_);}
</style>
<g>
	<linearGradient id="SVGID_1_" gradientUnits="userSpaceOnUse" x1="49.5307" y1="13.25" x2="49.5307" y2="97.063">
		<stop offset="0" style="stop-color:#00EFD1"/>
		<stop offset="1" style="stop-color:#00ACEA"/>
	</linearGradient>
	<path class="st0" d="M32.9,35.2c0.7,0,1.5-0.3,2-0.8l11.6-10.8v40.7c0,1.7,1.3,3,3,3s3-1.3,3-3V23.6l11.6,10.8   c1.2,1.1,3.1,1.1,4.2-0.1c1.1-1.2,1.1-3.1-0.1-4.2L51.5,14.5c-0.1-0.1-0.1-0.1-0.2-0.1c-0.1-0.1-0.1-0.1-0.2-0.2   C51,14.1,51,14.1,50.9,14c-0.1,0-0.2-0.1-0.2-0.1c-0.1,0-0.2-0.1-0.3-0.1c-0.1,0-0.1,0-0.2-0.1c-0.2,0-0.4-0.1-0.6-0.1   c-0.2,0-0.4,0-0.6,0.1c-0.1,0-0.1,0-0.2,0.1c-0.1,0-0.2,0.1-0.3,0.1S48.3,14,48.3,14c-0.1,0-0.2,0.1-0.3,0.1   c-0.1,0.1-0.2,0.1-0.2,0.2c-0.1,0-0.1,0.1-0.2,0.1L30.9,30c-1.2,1.1-1.3,3-0.1,4.2C31.3,34.9,32.1,35.2,32.9,35.2z"/>
	<linearGradient id="SVGID_2_" gradientUnits="userSpaceOnUse" x1="49" y1="13.25" x2="49" y2="97.063">
		<stop offset="0" style="stop-color:#00EFD1"/>
		<stop offset="1" style="stop-color:#00ACEA"/>
	</linearGradient>
	<path class="st1" d="M79.5,39.3h-16c-1.7,0-3,1.3-3,3s1.3,3,3,3h13v41h-55v-41h13c1.7,0,3-1.3,3-3s-1.3-3-3-3h-16c-1.7,0-3,1.3-3,3   v47c0,1.7,1.3,3,3,3h61c1.7,0,3-1.3,3-3v-47C82.5,40.6,81.2,39.3,79.5,39.3z"/>
</g>
</svg>
